<svg width="40" height="54" viewBox="0 0 40 54" fill="none" xmlns="http://www.w3.org/2000/svg">
<path d="M20 52.9009C19.9087 52.8018 19.8068 52.6906 19.6949 52.5679C19.1524 51.9728 18.3761 51.1057 17.444 50.0203C15.579 47.8489 13.0939 44.8083 10.6104 41.3298C8.12527 37.8491 5.65207 33.9442 3.8027 30.0432C1.94825 26.1314 0.75 22.2832 0.75 18.9C0.75 8.90462 9.31653 0.75 20 0.75C30.6835 0.75 39.25 8.90462 39.25 18.9C39.25 22.2832 38.0517 26.1314 36.1973 30.0432C34.3479 33.9442 31.8747 37.8491 29.3896 41.3298C26.9061 44.8083 24.421 47.8489 22.556 50.0203C21.6239 51.1057 20.8476 51.9728 20.3051 52.5679C20.1932 52.6906 20.0913 52.8018 20 52.9009ZM12.1071 18.9C12.1071 23.0796 15.6835 26.4 20 26.4C24.3165 26.4 27.8929 23.0796 27.8929 18.9C27.8929 14.7204 24.3165 11.4 20 11.4C15.6835 11.4 12.1071 14.7204 12.1071 18.9Z" fill="#E1261C" stroke="#BF241B" stroke-width="1.5"/>
<ellipse cx="20" cy="19.2" rx="13.75" ry="13.2" fill="#E1261C"/>
<path d="M23.0375 17.9999L20 8.3999L16.9625 17.9999H7.5L15.225 23.2919L12.2875 32.3999L20 26.7719L27.725 32.3999L24.7875 23.2919L32.5 17.9999H23.0375Z" fill="white"/>
</svg>
