<svg width="35" height="48" viewBox="0 0 35 48" fill="none" xmlns="http://www.w3.org/2000/svg">
<path d="M17.5 46.8904C17.4399 46.8239 17.3752 46.7521 17.3062 46.6752C16.832 46.1469 16.1534 45.3767 15.3384 44.4127C13.7077 42.4838 11.5349 39.7831 9.36361 36.6937C7.1908 33.6021 5.02956 30.1354 3.41401 26.6735C1.79358 23.2011 0.75 19.792 0.75 16.8C0.75 7.95478 8.21006 0.75 17.5 0.75C26.7899 0.75 34.25 7.95478 34.25 16.8C34.25 19.792 33.2064 23.2011 31.586 26.6735C29.9704 30.1354 27.8092 33.6021 25.6364 36.6937C23.4651 39.7831 21.2923 42.4838 19.6616 44.4127C18.8466 45.3767 18.168 46.1469 17.6938 46.6752C17.6248 46.7521 17.5601 46.8239 17.5 46.8904ZM10.5 16.8C10.5 20.5548 13.6649 23.55 17.5 23.55C21.3351 23.55 24.5 20.5548 24.5 16.8C24.5 13.0452 21.3351 10.05 17.5 10.05C13.6649 10.05 10.5 13.0452 10.5 16.8Z" fill="#E1261C" stroke="#BF241B" stroke-width="1.5"/>
<circle cx="17.5" cy="16.75" r="7" fill="white"/>
</svg>
